<?xml version="1.0" encoding="UTF-8"?><svg id="Layer_2" xmlns="http://www.w3.org/2000/svg" viewBox="0 0 1363.6 766.9"><defs><style>.cls-1{fill:none;stroke-width:0px;}</style></defs><polygon class="cls-1" points="0 0 0 766.9 77.6 766.9 91.7 753.9 137.9 724.9 168.2 707.6 202.4 691.2 234.8 678 280.4 660.7 304.5 651.5 331.7 641.7 331.7 635.5 334.6 628.4 342.1 620.8 355.8 613.7 368.8 610.5 389.5 608.8 404.4 610.5 412.3 614.4 417 618.6 482.1 602.6 475.2 577.3 471.6 546.5 469.5 522 469.9 476.6 469.7 460.3 474.4 437.7 486.3 414.5 493.6 407 506.8 400.2 526.4 396.1 544.3 394.9 578.7 392.5 643.5 390.6 672.3 390.2 794.8 391.7 848.3 394.8 878.2 402.3 892.9 412.3 899.5 429.8 905.9 461 904.4 526.3 902.3 590.3 901.7 603.1 985.3 624 1090.3 657.1 1090.3 620.9 1086.9 614.1 1094.6 604.8 1086.9 583.9 1091.2 578.6 1086.9 571.2 1088.8 569.6 1097 570.2 1084.3 554.8 1085.3 552.4 1091.9 552.3 1087.9 546.9 1128.8 542.8 1128.8 535.7 1131.1 534.4 1140.9 538.5 1140.9 516.5 1146.3 516.5 1155.6 519.3 1157.6 496.3 1162.8 490.3 1172.6 488.4 1188.8 486.4 1200 486.3 1213.5 489.1 1221.8 493.2 1227.1 498.9 1229.5 503.5 1228.2 515.8 1222.5 550.5 1212 620.8 1186.3 705.3 1237.6 735.8 1262.3 756.4 1273.7 766.9 1363.6 766.9 1363.6 0 0 0"/></svg>